<svg width="318" height="96" viewBox="0 0 318 96" fill="none" xmlns="http://www.w3.org/2000/svg">
<path fill-rule="evenodd" clip-rule="evenodd" d="M48 96C74.5097 96 96 74.5097 96 48C96 21.4903 74.5097 0 48 0C21.4903 0 0 21.4903 0 48C0 66.4942 10.4593 82.5454 25.7855 90.5612L25.8151 90L24.7049 69H37.3525C37.3525 69 36.1351 78.6045 36.1351 90C36.1351 91.5528 36.1588 93.0723 36.1997 94.5387C39.975 95.493 43.9283 96 48 96ZM52.0748 31.7344C47.0516 34.6346 44.401 39.4722 43.3685 41.7728L36.1578 47.6651C36.1431 46.7905 36.1351 45.9009 36.1351 45C36.1351 33.6045 37.4107 24 37.4107 24H24.7049C24.7049 24 25.8151 33.6045 25.8151 45C25.8151 56.3955 24.7049 66 24.7049 66H37.4107C37.4107 66 36.461 58.8493 36.2005 49.5673L37.3732 48.6091C38.413 50.0166 41.2129 53.1539 46.2482 54.4289C52.8355 56.0968 64.8955 54.9943 64.8955 54.9943C64.8955 54.9943 54.6497 48.9317 48.0624 47.2638C44.2683 46.3031 41.1415 46.662 39.172 47.1392L44.0662 43.1398C46.4131 43.2121 51.7944 43.0317 57.0811 40.4056C64.1146 36.9117 77.9207 22.8144 77.9207 22.8144C77.9207 22.8144 58.8419 27.8275 52.0748 31.7344Z" fill="white"/>
<path fill-rule="evenodd" clip-rule="evenodd" d="M184.424 65.1796L184.421 65.1755C181.8 61.8806 180.511 57.3043 180.511 51.4886C180.511 48.6194 180.918 46.0269 181.738 43.7151L181.74 43.7094C182.605 41.4075 183.738 39.4556 185.142 37.8599C186.543 36.2682 188.142 35.0342 189.937 34.1622L189.94 34.1607C191.783 33.2895 193.679 32.8518 195.626 32.8518C197.652 32.8518 199.388 33.2126 200.82 33.9509C202.026 34.5324 203.227 35.3075 204.423 36.2734L204.177 31.4191V21.4058H213.015V69.203H205.645L205.094 65.5605C203.84 66.7699 202.393 67.8056 200.756 68.6681C199.003 69.5915 197.15 70.0544 195.2 70.0544C190.702 70.0544 187.099 68.4317 184.424 65.1796ZM200.773 40.8758L200.769 40.8743C199.668 40.4622 198.546 40.2569 197.403 40.2569C195.243 40.2569 193.416 41.1932 191.907 43.1097C190.407 45.016 189.633 47.7699 189.633 51.4176C189.633 55.1684 190.292 57.9761 191.565 59.8845C192.871 61.7256 194.731 62.6493 197.189 62.6493C199.64 62.6493 201.969 61.4451 204.177 58.9543V42.984C203.007 41.9693 201.872 41.271 200.773 40.8758ZM120 33.7032H127.388L127.926 39.5481C129.122 37.4854 130.554 35.8834 132.226 34.755C134.025 33.4936 135.89 32.8518 137.816 32.8518H141.418V40.8244H138.094C135.981 40.8244 134.324 41.092 132.608 42.3229L132.603 42.327C131.173 43.3082 129.911 45.066 128.838 47.6525V69.203H120V33.7032ZM219.23 69.203V64.3685L235.418 40.8244H219.23V33.7032H246.617V38.4664L230.498 62.0108H246.617V69.203H219.23ZM286.747 69.203V33.7032H294.126L294.679 38.2621C296.196 36.824 297.822 35.5803 299.558 34.5315L299.561 34.5295C301.466 33.4079 303.658 32.8518 306.126 32.8518C309.944 32.8518 312.785 34.0863 314.569 36.609C316.332 39.0532 317.19 42.5381 317.19 47.0189V69.203H308.352V48.0831C308.352 45.2106 307.923 43.2687 307.135 42.1763C306.365 41.1078 305.087 40.5407 303.212 40.5407C301.754 40.5407 300.467 40.9036 299.34 41.6235L299.337 41.6254C298.253 42.3018 297.003 43.3163 295.585 44.6773V69.203H286.747ZM148.277 67.1941L148.274 67.1912C146.292 65.2277 145.311 62.6548 145.311 59.5055C145.311 57.6139 145.703 55.9266 146.497 54.4526L146.499 54.4492C147.342 52.9254 148.627 51.633 150.337 50.5678L150.341 50.5656C152.093 49.5049 154.271 48.6195 156.87 47.9044L156.871 47.904C159.441 47.2096 162.48 46.6743 165.986 46.2963C165.925 45.5378 165.793 44.8172 165.59 44.1339L165.587 44.123L165.584 44.112C165.404 43.3092 165.069 42.6263 164.582 42.0559L164.573 42.0455L164.565 42.0344C164.127 41.4265 163.534 40.9673 162.776 40.6579L162.768 40.6549L162.761 40.6514C162.005 40.2992 161.054 40.115 159.894 40.115C158.22 40.115 156.567 40.4372 154.934 41.0842C153.328 41.7396 151.744 42.5357 150.183 43.473L149.887 43.6507L146.562 37.6104L146.828 37.4434C148.807 36.2 151.024 35.126 153.477 34.2204C155.952 33.307 158.617 32.8518 161.469 32.8518C165.927 32.8518 169.304 34.1742 171.534 36.8721C173.799 39.5084 174.906 43.3102 174.906 48.2251V69.2031H167.484L166.925 65.4611C165.387 66.7285 163.737 67.7986 161.977 68.671C160.161 69.5944 158.176 70.0544 156.027 70.0544C152.853 70.0544 150.259 69.1087 148.277 67.1941ZM162.382 62.0526C163.515 61.4241 164.723 60.5283 166.006 59.3591V52.0771C163.794 52.3539 161.932 52.7142 160.417 53.1559C158.811 53.6239 157.528 54.1576 156.559 54.7519L156.554 54.7549L156.549 54.7578C155.582 55.305 154.918 55.9289 154.526 56.619C154.124 57.3269 153.925 58.0746 153.925 58.867C153.925 60.3585 154.378 61.3775 155.223 62.0055C156.108 62.6629 157.25 63.0041 158.677 63.0041C160.055 63.0041 161.286 62.686 162.377 62.0555L162.382 62.0526ZM260.373 68.826L260.367 68.8237C258.243 67.9559 256.381 66.7254 254.786 65.1328C253.188 63.5378 251.932 61.6074 251.017 59.3466L251.014 59.3387C250.144 57.0247 249.713 54.4063 249.713 51.4886C249.713 48.6154 250.169 46.0188 251.087 43.7038C252.001 41.3998 253.206 39.4471 254.708 37.8518L254.711 37.8479C256.256 36.2571 258.021 35.0259 260.004 34.1568C261.987 33.2878 264.022 32.8518 266.108 32.8518C268.514 32.8518 270.647 33.2602 272.497 34.0868C274.342 34.9108 275.877 36.0766 277.096 37.5844C278.359 39.0882 279.302 40.8785 279.929 42.9495C280.556 45.0185 280.867 47.2744 280.867 49.7149C280.867 50.5279 280.735 52.0184 280.735 52.0184C280.735 52.0184 280.604 53.3133 280.504 53.7602L280.446 54.0205H258.385C258.796 56.9015 259.843 59.1104 261.5 60.6797C263.278 62.2705 265.539 63.075 268.311 63.075C269.794 63.075 271.155 62.867 272.396 62.4546C273.697 61.9905 274.977 61.3633 276.236 60.5719L276.536 60.3832L279.623 66.0719L279.367 66.2397C277.684 67.3438 275.811 68.2541 273.75 68.9717C271.677 69.6938 269.508 70.0544 267.245 70.0544C264.791 70.0544 262.499 69.646 260.373 68.826ZM271.386 42.0403L271.382 42.0357C270.323 40.5823 268.661 39.8312 266.321 39.8312C264.323 39.8312 262.58 40.5303 261.076 41.9406C259.653 43.2753 258.724 45.2232 258.319 47.8215H273.092C273.045 45.3332 272.465 43.4197 271.389 42.0448L271.386 42.0403Z" fill="white"/>
</svg>
