<svg width="64" height="64" viewBox="0 0 64 64" fill="none" xmlns="http://www.w3.org/2000/svg">
<path id="logo" fill-rule="evenodd" clip-rule="evenodd" d="M32 64C49.6731 64 64 49.6731 64 32C64 14.3269 49.6731 0 32 0C14.3269 0 0 14.3269 0 32C0 44.3294 6.9729 55.0303 17.1903 60.3741L17.2101 60L16.4699 46H24.9016C24.9016 46 24.0901 52.403 24.0901 60C24.0901 61.0352 24.1059 62.0482 24.1332 63.0258C26.65 63.662 29.2855 64 32 64ZM34.7165 21.1563C31.3677 23.0897 29.6006 26.3148 28.9123 27.8485L24.1052 31.7768C24.0954 31.1937 24.0901 30.6006 24.0901 30C24.0901 22.403 24.9405 16 24.9405 16H16.4699C16.4699 16 17.2101 22.403 17.2101 30C17.2101 37.597 16.4699 44 16.4699 44H24.9405C24.9405 44 24.3074 39.2329 24.1337 33.0449L24.9155 32.4061C25.6087 33.3444 27.4753 35.436 30.8322 36.2859C35.2237 37.3978 43.2636 36.6629 43.2636 36.6629C43.2636 36.6629 36.4332 32.6211 32.0416 31.5092C29.5122 30.8687 27.4277 31.108 26.1147 31.4261L29.3775 28.7599C30.9421 28.8081 34.5296 28.6878 38.0541 26.937C42.743 24.6078 51.9471 15.2096 51.9471 15.2096C51.9471 15.2096 39.2279 18.5516 34.7165 21.1563Z" fill="currentColor"/>
</svg>
